<svg width="50" height="50" viewBox="0 0 50 50" fill="none" xmlns="http://www.w3.org/2000/svg">
<g opacity="0.4">
<path d="M27.375 30.8656V29.6806C27.375 18.6912 35.5108 9.73584 46.1356 8.46114C47.5322 8.29359 48.75 9.41988 48.75 10.8265C48.75 12.0401 47.8328 13.0366 46.6287 13.1883C42.8855 13.6598 39.533 15.3586 37.0268 17.8221C36.1366 18.6971 36.7763 20.1857 38.0244 20.1806C38.0363 20.1806 38.0481 20.1806 38.06 20.1806C44.1846 20.1806 49.0441 25.2304 48.7361 31.4223C48.4668 36.836 44.0304 41.2724 38.6167 41.5417C32.4248 41.8497 27.375 36.9902 27.375 30.8656Z" fill="#00450C"/>
<path d="M1.25 30.6288L1.25 29.6806C1.25 18.6912 9.38577 9.73584 20.0106 8.46114C21.4072 8.29359 22.625 9.41988 22.625 10.8265C22.625 12.0401 21.7079 13.0366 20.5038 13.1884C16.7629 13.6601 13.4094 15.359 10.9044 17.8224C10.0146 18.6974 10.6542 20.1859 11.9022 20.1806C11.9148 20.1806 11.9274 20.1806 11.94 20.1806C17.875 20.1806 22.625 24.9306 22.625 30.8656C22.625 36.9098 17.7069 41.7218 11.6266 41.5512C5.80664 41.3878 1.25 36.451 1.25 30.6288Z" fill="#00450C"/>
</g>
</svg>
