<svg width="16" height="16" viewBox="0 0 16 16" fill="none" xmlns="http://www.w3.org/2000/svg">
<path d="M5.86502 14.2837C5.8632 14.2819 5.86141 14.2801 5.85959 14.2783L0.258624 8.68464C0.214421 8.64019 0.175159 8.59108 0.141491 8.53819L0.0536331 8.37713L0.017014 8.26731L0.017014 8.18676C-0.00567133 8.06335 -0.00567133 7.93681 0.017014 7.81336L0.017014 7.74016L0.017014 7.6523L0.0829077 7.52782C0.120591 7.45846 0.167368 7.39442 0.222005 7.33745L5.85959 1.72186C6.23265 1.34582 6.83994 1.34338 7.21598 1.71644C7.2178 1.71822 7.21958 1.72004 7.2214 1.72186C7.58306 2.10092 7.58306 2.69726 7.2214 3.07636L3.88278 6.42228C3.74125 6.56663 3.74351 6.79843 3.8879 6.93996C3.95506 7.00582 4.04498 7.0433 4.13905 7.0446L15.0408 7.0446C15.5705 7.04457 16 7.47394 16 8.00367C16 8.53339 15.5707 8.9628 15.0409 8.96287H15.0408L4.13905 8.96287C3.9369 8.96571 3.77529 9.13189 3.77814 9.33403C3.77948 9.42807 3.81692 9.51802 3.88278 9.58519L7.2214 12.9165C7.58773 13.2965 7.58773 13.8983 7.2214 14.2783C6.84834 14.6543 6.24106 14.6568 5.86502 14.2837Z" fill="white"/>
</svg>
