<svg width="24" height="24" viewBox="0 0 24 24" fill="none" xmlns="http://www.w3.org/2000/svg">
<path d="M1.21894 3.85979C0.859934 3.62058 0.644531 3.21809 0.644531 2.78699V2.78591C0.644531 2.02377 1.26242 1.40593 2.0246 1.40593H19.9754C20.7375 1.40593 21.3554 2.02377 21.3554 2.78591V2.7866V2.78699C21.3554 3.21809 21.14 3.62058 20.781 3.85979C19.0292 5.02789 13.7507 8.54665 11.7659 9.87008C11.302 10.1794 10.6979 10.1794 10.234 9.87008C8.24923 8.54665 2.97073 5.02789 1.21894 3.85979Z" stroke="white" stroke-miterlimit="10" stroke-linecap="round" stroke-linejoin="round"/>
<path d="M0.644531 2.78651V15.213C0.644531 15.5793 0.789852 15.9303 1.04908 16.1892C1.30797 16.4484 1.65902 16.5938 2.02525 16.5938H19.9747C20.3409 16.5938 20.6919 16.4484 20.9508 16.1892C21.2101 15.9303 21.3554 15.5793 21.3554 15.213V2.78651" stroke="white" stroke-miterlimit="10" stroke-linecap="round" stroke-linejoin="round"/>
</svg>
