<svg width="16" height="14" viewBox="0 0 16 14" fill="none" xmlns="http://www.w3.org/2000/svg">
<path d="M5.86502 13.2837C5.8632 13.2819 5.86141 13.2801 5.85959 13.2783L0.258624 7.68464C0.214421 7.64019 0.175159 7.59108 0.141491 7.53819L0.0536331 7.37713L0.017014 7.26731L0.017014 7.18676C-0.00567133 7.06335 -0.00567133 6.93681 0.017014 6.81336L0.017014 6.74016L0.017014 6.6523L0.0829077 6.52782C0.120591 6.45846 0.167368 6.39442 0.222005 6.33745L5.85959 0.721862C6.23265 0.345822 6.83994 0.343385 7.21598 0.71644C7.2178 0.718224 7.21958 0.720043 7.2214 0.721862C7.58306 1.10092 7.58306 1.69726 7.2214 2.07636L3.88278 5.42228C3.74125 5.56663 3.74351 5.79843 3.8879 5.93996C3.95506 6.00582 4.04498 6.0433 4.13905 6.0446L15.0408 6.0446C15.5705 6.04457 16 6.47394 16 7.00367C16 7.53339 15.5707 7.9628 15.0409 7.96287H15.0408L4.13905 7.96287C3.9369 7.96571 3.77529 8.13189 3.77814 8.33403C3.77948 8.42807 3.81692 8.51802 3.88278 8.58519L7.2214 11.9165C7.58773 12.2965 7.58773 12.8983 7.2214 13.2783C6.84834 13.6543 6.24106 13.6568 5.86502 13.2837Z" fill="white"/>
</svg>
