<svg width="24" height="16" viewBox="0 0 24 16" fill="none" xmlns="http://www.w3.org/2000/svg">
<path d="M0.25 1.38714C0.25 0.758571 0.7629 0.25 1.39425 0.25H22.6058C22.9092 0.25 23.2003 0.369806 23.4149 0.583061C23.6294 0.796317 23.75 1.08555 23.75 1.38714C23.75 1.68873 23.6294 1.97797 23.4149 2.19122C23.2003 2.40448 22.9092 2.52429 22.6058 2.52429H1.39425C1.09078 2.52429 0.799732 2.40448 0.585143 2.19122C0.370555 1.97797 0.25 1.68873 0.25 1.38714Z" fill="white"/>
<path d="M0.25 7.88714C0.25 7.25857 0.7629 6.75 1.39425 6.75H22.6058C22.9092 6.75 23.2003 6.86981 23.4149 7.08306C23.6294 7.29632 23.75 7.58555 23.75 7.88714C23.75 8.18873 23.6294 8.47797 23.4149 8.69122C23.2003 8.90448 22.9092 9.02429 22.6058 9.02429H1.39425C1.09078 9.02429 0.799732 8.90448 0.585143 8.69122C0.370555 8.47797 0.25 8.18873 0.25 7.88714Z" fill="white"/>
<path d="M0.25 14.6129C0.25 13.9843 0.7629 13.4757 1.39425 13.4757H22.6058C22.9092 13.4757 23.2003 13.5955 23.4149 13.8088C23.6294 14.022 23.75 14.3113 23.75 14.6129C23.75 14.9144 23.6294 15.2037 23.4149 15.4169C23.2003 15.6302 22.9092 15.75 22.6058 15.75H1.39425C1.09078 15.75 0.799732 15.6302 0.585143 15.4169C0.370555 15.2037 0.25 14.9144 0.25 14.6129Z" fill="white"/>
</svg>
