<svg width="18" height="28" viewBox="0 0 18 28" fill="none" xmlns="http://www.w3.org/2000/svg">
<path d="M0.375 8.15186C0.375 7.05928 0.725781 5.95228 1.42734 4.83086C2.12891 3.70944 3.15254 2.78066 4.49824 2.04453C5.84408 1.30885 7.414 0.94082 9.20801 0.94043C10.8754 0.94043 12.3476 1.24811 13.6245 1.86348C14.9015 2.47884 15.8878 3.31559 16.5835 4.37373C17.2678 5.39398 17.6313 6.59557 17.6272 7.82402C17.6272 8.80163 17.4287 9.6585 17.0315 10.3946C16.6592 11.098 16.1823 11.7408 15.6169 12.3009C15.0707 12.8358 14.0902 13.7358 12.6756 15.0009C12.345 15.2967 12.0312 15.6106 11.7354 15.9411C11.531 16.1666 11.3544 16.4158 11.2093 16.6833C11.0978 16.8981 11.0082 17.1235 10.9419 17.3562C10.8785 17.5805 10.7836 17.9744 10.6571 18.5378C10.4385 19.7341 9.75423 20.3321 8.6043 20.3319C8.32635 20.3391 8.04975 20.2909 7.79058 20.1902C7.53141 20.0895 7.29484 19.9383 7.09463 19.7454C6.68623 19.3548 6.4821 18.774 6.48223 18.003C6.48223 17.037 6.63171 16.2004 6.93067 15.4933C7.21586 14.8073 7.61873 14.1764 8.1211 13.6291C8.75548 12.9602 9.4234 12.324 10.1223 11.7228C10.8583 11.0788 11.3903 10.5929 11.7183 10.2649C12.0439 9.94008 12.3225 9.57135 12.5462 9.16944C12.7699 8.76888 12.8858 8.31709 12.8825 7.8583C12.8893 7.41908 12.8011 6.98357 12.6239 6.5816C12.4468 6.17962 12.1849 5.82067 11.8562 5.5293C11.1716 4.89701 10.2889 4.58073 9.20801 4.58047C7.94277 4.58047 7.0112 4.89948 6.41328 5.5375C5.81537 6.17552 5.30924 7.11572 4.89492 8.35811C4.50384 9.65856 3.76204 10.3088 2.66953 10.3088C2.36532 10.3149 2.06319 10.2574 1.78245 10.1401C1.50172 10.0227 1.24856 9.8481 1.03916 9.62735C0.596386 9.17285 0.375 8.68102 0.375 8.15186ZM8.79404 27.06C8.11812 27.0695 7.46295 26.8265 6.95674 26.3785C6.43317 25.9244 6.17149 25.2889 6.17168 24.4722C6.16437 24.1314 6.22807 23.7928 6.35874 23.4779C6.48941 23.1631 6.68418 22.8789 6.93067 22.6435C7.17547 22.4009 7.46664 22.2102 7.78679 22.0827C8.10695 21.9551 8.44952 21.8935 8.79404 21.9013C9.13298 21.8964 9.46946 21.9595 9.78356 22.087C10.0977 22.2144 10.383 22.4036 10.6226 22.6434C10.8623 22.8831 11.0514 23.1685 11.1788 23.4826C11.3062 23.7967 11.3693 24.1332 11.3643 24.4722C11.3643 25.2774 11.1054 25.9099 10.5878 26.3698C10.0989 26.8188 9.4578 27.0655 8.79404 27.06Z" fill="white"/>
</svg>
