<svg width="16" height="14" viewBox="0 0 16 14" fill="none" xmlns="http://www.w3.org/2000/svg">
<path d="M10.135 13.2837C10.1368 13.2819 10.1386 13.2801 10.1404 13.2783L15.7414 7.68464C15.7856 7.64019 15.8248 7.59108 15.8585 7.53819L15.9464 7.37713L15.983 7.26731V7.18676C16.0057 7.06335 16.0057 6.93681 15.983 6.81336V6.74016V6.6523L15.9171 6.52782C15.8794 6.45846 15.8326 6.39442 15.778 6.33745L10.1404 0.721862C9.76735 0.345822 9.16006 0.343385 8.78402 0.71644C8.7822 0.718224 8.78042 0.720043 8.7786 0.721862C8.41694 1.10092 8.41694 1.69726 8.7786 2.07636L12.1172 5.42228C12.2588 5.56663 12.2565 5.79843 12.1121 5.93996C12.0449 6.00582 11.955 6.0433 11.861 6.0446L0.959208 6.0446C0.429483 6.04457 4.19617e-05 6.47394 7.62939e-06 7.00367C-2.67029e-05 7.53339 0.429346 7.9628 0.95907 7.96287H0.959208L11.861 7.96287C12.0631 7.96571 12.2247 8.13189 12.2219 8.33403C12.2205 8.42807 12.1831 8.51802 12.1172 8.58519L8.7786 11.9165C8.41227 12.2965 8.41227 12.8983 8.7786 13.2783C9.15166 13.6543 9.75894 13.6568 10.135 13.2837Z" fill="white"/>
</svg>
